<svg xmlns="http://www.w3.org/2000/svg" xmlns:xlink="http://www.w3.org/1999/xlink" version="1.0" x="0" y="0" width="2400" height="740.541093328059" viewBox="54.35239501953125 89.31591888427734 231.2952099609375 71.36816986083984" preserveAspectRatio="xMidYMid meet" color-interpolation-filters="sRGB"><g><defs><linearGradient id="92" x1="0%" y1="0%" x2="100%" y2="0%"><stop offset="0%" stop-color="#fa71cd"></stop> <stop offset="100%" stop-color="#9b59b6"></stop></linearGradient><linearGradient id="93" x1="0%" y1="0%" x2="100%" y2="0%"><stop offset="0%" stop-color="#f9d423"></stop> <stop offset="100%" stop-color="#f83600"></stop></linearGradient><linearGradient id="94" x1="0%" y1="0%" x2="100%" y2="0%"><stop offset="0%" stop-color="#0064d2"></stop> <stop offset="100%" stop-color="#1cb0f6"></stop></linearGradient><linearGradient id="95" x1="0%" y1="0%" x2="100%" y2="0%"><stop offset="0%" stop-color="#f00978"></stop> <stop offset="100%" stop-color="#3f51b1"></stop></linearGradient><linearGradient id="96" x1="0%" y1="0%" x2="100%" y2="0%"><stop offset="0%" stop-color="#7873f5"></stop> <stop offset="100%" stop-color="#ec77ab"></stop></linearGradient><linearGradient id="97" x1="0%" y1="0%" x2="100%" y2="0%"><stop offset="0%" stop-color="#f9d423"></stop> <stop offset="100%" stop-color="#e14fad"></stop></linearGradient><linearGradient id="98" x1="0%" y1="0%" x2="100%" y2="0%"><stop offset="0%" stop-color="#009efd"></stop> <stop offset="100%" stop-color="#2af598"></stop></linearGradient><linearGradient id="99" x1="0%" y1="0%" x2="100%" y2="0%"><stop offset="0%" stop-color="#ffcc00"></stop> <stop offset="100%" stop-color="#00b140"></stop></linearGradient><linearGradient id="100" x1="0%" y1="0%" x2="100%" y2="0%"><stop offset="0%" stop-color="#d51007"></stop> <stop offset="100%" stop-color="#ff8177"></stop></linearGradient><linearGradient id="102" x1="0%" y1="0%" x2="100%" y2="0%"><stop offset="0%" stop-color="#a2b6df"></stop> <stop offset="100%" stop-color="#0c3483"></stop></linearGradient><linearGradient id="103" x1="0%" y1="0%" x2="100%" y2="0%"><stop offset="0%" stop-color="#7ac5d8"></stop> <stop offset="100%" stop-color="#eea2a2"></stop></linearGradient><linearGradient id="104" x1="0%" y1="0%" x2="100%" y2="0%"><stop offset="0%" stop-color="#00ecbc"></stop> <stop offset="100%" stop-color="#007adf"></stop></linearGradient><linearGradient id="105" x1="0%" y1="0%" x2="100%" y2="0%"><stop offset="0%" stop-color="#b88746"></stop> <stop offset="100%" stop-color="#fdf5a6"></stop></linearGradient></defs><g fill="#0BBF64" class="iconlinesvg-g iconlinesvg" transform="translate(78.6034164428711,91.58351516723633)"><g class="tp-name" transform="translate(0,0)"><g transform="translate(0, 0)"><g><g class="imagesvg"><g><rect fill="#0BBF64" fill-opacity="0" stroke-width="2" x="0" y="0" width="49.69997137796363" height="49.63296687268551" class="image-rect"></rect> <svg x="0" y="0" width="49.69997137796363" height="49.63296687268551" filtersec="colorsb3424623184" class="image-svg-svg primary" style="overflow: visible;"><svg xmlns="http://www.w3.org/2000/svg" viewBox="0 0 230.52000427246094 230.2100067138672"><path d="M29.06 230.21H0V1.44c76.45-9.85 177.83 67.71 175.19 170.05-16-8.24-29.57-15.5-35.21-35.53-14.44-51.3-49.11-84.46-99.9-100.62a45.27 45.27 0 0 0-6.71-1.53c-.83-.13-1.77.37-4.31 1v195.4z" fill="#0BBF64"></path><path d="M230.47 229.1C150 236.52 53.41 160 54.67 58c15.16 8.86 29.63 14.39 35 34.29 13.54 50.47 47 83.69 96.15 101.07a68.57 68.57 0 0 0 8 2.28 70.18 70.18 0 0 0 7.37.73V0h29.33z" fill="#FFFFFF"></path></svg></svg> </g></g></g></g><g transform="translate(54, 3.6922230813131662)"><g fill="#0BBF64" transform="scale(1)"><path d="M19.53 0.89Q11.60 0.89 6.98-3.08Q2.37-7.04 2.37-14.14L2.37-14.14Q2.37-21.12 6.45-25.21Q10.53-29.29 18.11-29.29L18.11-29.29Q23.08-29.29 26.60-27.40Q30.12-25.50 31.89-22.22Q33.67-18.93 33.67-14.73L33.67-14.73L33.67-11.30L9.47-11.30Q10.24-4.97 20.47-4.97L20.47-4.97Q23.20-4.97 26.04-5.44Q28.88-5.92 31.01-6.75L31.01-6.75L31.01-1.01Q28.99-0.18 25.83 0.36Q22.66 0.89 19.53 0.89L19.53 0.89ZM9.47-16.39L26.63-16.39Q26.51-19.76 24.23-21.60Q21.95-23.43 17.99-23.43L17.99-23.43Q14.08-23.43 11.83-21.54Q9.59-19.64 9.47-16.39L9.47-16.39Z" transform="translate(-2.3668639053254443, 41.36094674556213)"></path></g></g><g transform="translate(89, 3.6922230813131662)"><g fill="#0BBF64" transform="scale(1)"><path d="M2.37 0L14.50-14.73L3.20-28.40L11.48-28.40L18.64-19.70L25.80-28.40L34.08-28.40L22.78-14.73L34.91 0L26.69 0L18.64-9.70L10.59 0L2.37 0Z" transform="translate(-2.3668639053254443, 41.36094674556213)"></path></g></g><g transform="translate(125, 3.6922230813131662)"><g fill="#0BBF64" transform="scale(1)"><path d="M14.67 0.89Q8.93 0.89 6.09-2.22Q3.25-5.33 3.25-10.47L3.25-10.47L3.25-28.40L10.71-28.40L10.71-11.18Q10.71-4.97 16.51-4.97L16.51-4.97Q19.05-4.97 21.30-6.18Q23.55-7.40 25.09-9.82L25.09-9.82L25.09-28.40L32.54-28.40L32.54 0L25.33 0L25.33-3.85Q23.31-1.42 20.53-0.27Q17.75 0.89 14.67 0.89L14.67 0.89Z" transform="translate(-3.254437869822485, 41.36094674556213)"></path></g></g><g transform="translate(158, 3.6922230813131662)"><g fill="#0BBF64" transform="scale(1)"><path d="M14.62 0.89Q11.54 0.89 8.05 0.18Q4.56-0.53 2.60-1.78L2.60-1.78L2.60-8.11Q4.91-6.69 8.11-5.83Q11.30-4.97 14.14-4.97L14.14-4.97Q16.98-4.97 18.28-5.47Q19.59-5.98 19.59-7.34L19.59-7.34Q19.59-8.40 18.91-9.08Q18.22-9.76 16.72-10.33Q15.21-10.89 12.07-11.72L12.07-11.72Q8.52-12.72 6.48-13.79Q4.44-14.85 3.40-16.48Q2.37-18.11 2.37-20.71L2.37-20.71Q2.37-24.97 5.74-27.13Q9.11-29.29 14.85-29.29L14.85-29.29Q17.81-29.29 20.74-28.73Q23.67-28.17 25.33-27.16L25.33-27.16L25.33-21.07Q23.55-22.13 21.01-22.78Q18.46-23.43 15.80-23.43L15.80-23.43Q12.90-23.43 11.42-22.87Q9.94-22.31 9.94-20.71L9.94-20.71Q9.94-19.64 10.74-19.02Q11.54-18.40 12.84-17.96Q14.14-17.51 17.57-16.63L17.57-16.63Q21.24-15.62 23.31-14.44Q25.38-13.25 26.27-11.60Q27.16-9.94 27.16-7.46L27.16-7.46Q27.16-3.67 23.93-1.39Q20.71 0.89 14.62 0.89L14.62 0.89Z" transform="translate(-2.3668639053254434, 41.36094674556213)"></path></g></g></g> <g fill-rule="" class="tp-slogan" fill="#666666" transform="translate(-21.983421325683594,56.632965087890625)"> <g transform="scale(1, 1)"><g transform="scale(1)"><path d="M0.78-4.92L0.78-4.92Q0.78-6.10 1.12-7.05Q1.45-8.00 2.06-8.65Q2.67-9.31 3.49-9.67Q4.32-10.02 5.31-10.02L5.31-10.02Q6.33-10.02 7.01-9.64Q7.69-9.25 8.13-8.80L8.13-8.80L7.42-8.01Q7.05-8.40 6.56-8.66Q6.08-8.92 5.33-8.92L5.33-8.92Q4.58-8.92 3.97-8.65Q3.38-8.37 2.96-7.85Q2.53-7.33 2.30-6.60Q2.07-5.87 2.07-4.95L2.07-4.95Q2.07-4.02 2.29-3.28Q2.50-2.53 2.92-2.01Q3.33-1.48 3.94-1.20Q4.54-0.91 5.34-0.91L5.34-0.91Q5.87-0.91 6.34-1.07Q6.81-1.23 7.11-1.50L7.11-1.50L7.11-4.06L5.02-4.06L5.02-5.10L8.25-5.10L8.25-0.96Q7.77-0.46 6.98-0.14Q6.19 0.18 5.21 0.18L5.21 0.18Q4.23 0.18 3.42-0.16Q2.61-0.51 2.02-1.16Q1.44-1.81 1.11-2.77Q0.78-3.72 0.78-4.92ZM11.60 0L11.60-9.84L17.27-9.84L17.27-8.79L12.85-8.79L12.85-5.70L16.59-5.70L16.59-4.63L12.85-4.63L12.85-1.06L17.42-1.06L17.42 0L11.60 0ZM20.51 0L20.51-9.84L21.80-9.84L25.35-3.66L26.42-1.62L26.48-1.62Q26.43-2.37 26.38-3.17Q26.33-3.97 26.33-4.75L26.33-4.75L26.33-9.84L27.51-9.84L27.51 0L26.22 0L22.65-6.19L21.59-8.22L21.53-8.22Q21.59-7.47 21.64-6.70Q21.69-5.92 21.69-5.14L21.69-5.14L21.69 0L20.51 0ZM31.21 0L31.21-9.84L36.88-9.84L36.88-8.79L32.46-8.79L32.46-5.70L36.19-5.70L36.19-4.63L32.46-4.63L32.46-1.06L37.03-1.06L37.03 0L31.21 0ZM41.36-8.83L41.36-5.17L43.01-5.17Q44.17-5.17 44.78-5.65Q45.40-6.12 45.40-7.08L45.40-7.08Q45.40-8.05 44.78-8.45Q44.17-8.83 43.01-8.83L43.01-8.83L41.36-8.83ZM46.93 0L45.52 0L43.15-4.16L41.36-4.16L41.36 0L40.12 0L40.12-9.84L43.19-9.84Q43.94-9.84 44.58-9.70Q45.22-9.55 45.68-9.22Q46.13-8.89 46.39-8.37Q46.64-7.84 46.64-7.08L46.64-7.08Q46.64-5.92 46.04-5.23Q45.44-4.54 44.44-4.29L44.44-4.29L46.93 0ZM50.91-4.00L53.87-4.00L53.41-5.50Q53.13-6.33 52.90-7.15Q52.66-7.96 52.41-8.82L52.41-8.82L52.36-8.82Q52.13-7.96 51.89-7.15Q51.65-6.33 51.38-5.50L51.38-5.50L50.91-4.00ZM55.12 0L54.19-3L50.60-3L49.66 0L48.38 0L51.71-9.84L53.12-9.84L56.45 0L55.12 0ZM60.29 0L60.29-8.79L57.32-8.79L57.32-9.84L64.52-9.84L64.52-8.79L61.55-8.79L61.55 0L60.29 0ZM70.56 0.18L70.56 0.18Q69.63 0.18 68.85-0.18Q68.08-0.54 67.53-1.21Q66.97-1.88 66.66-2.83Q66.36-3.78 66.36-4.96L66.36-4.96Q66.36-6.15 66.66-7.09Q66.97-8.03 67.53-8.68Q68.08-9.33 68.85-9.67Q69.63-10.02 70.56-10.02L70.56-10.02Q71.48-10.02 72.26-9.67Q73.03-9.31 73.59-8.66Q74.16-8.01 74.46-7.07Q74.77-6.13 74.77-4.96L74.77-4.96Q74.77-3.78 74.46-2.83Q74.16-1.88 73.59-1.21Q73.03-0.54 72.26-0.18Q71.48 0.18 70.56 0.18ZM70.56-0.91L70.56-0.91Q71.22-0.91 71.75-1.20Q72.28-1.48 72.66-2.02Q73.05-2.55 73.25-3.29Q73.47-4.04 73.47-4.96L73.47-4.96Q73.47-5.88 73.25-6.61Q73.05-7.35 72.66-7.86Q72.28-8.37 71.75-8.65Q71.22-8.92 70.56-8.92L70.56-8.92Q69.90-8.92 69.36-8.65Q68.83-8.37 68.45-7.86Q68.06-7.35 67.86-6.61Q67.64-5.88 67.64-4.96L67.64-4.96Q67.64-4.04 67.86-3.29Q68.06-2.55 68.45-2.02Q68.83-1.48 69.36-1.20Q69.90-0.91 70.56-0.91ZM79.13-8.83L79.13-5.17L80.78-5.17Q81.94-5.17 82.55-5.65Q83.16-6.12 83.16-7.08L83.16-7.08Q83.16-8.05 82.55-8.45Q81.94-8.83 80.78-8.83L80.78-8.83L79.13-8.83ZM84.69 0L83.28 0L80.91-4.16L79.13-4.16L79.13 0L77.88 0L77.88-9.84L80.96-9.84Q81.71-9.84 82.35-9.70Q82.98-9.55 83.44-9.22Q83.90-8.89 84.16-8.37Q84.41-7.84 84.41-7.08L84.41-7.08Q84.41-5.92 83.81-5.23Q83.21-4.54 82.20-4.29L82.20-4.29L84.69 0ZM91.63 0L91.63-9.84L92.88-9.84L92.88-5.71L97.45-5.71L97.45-9.84L98.71-9.84L98.71 0L97.45 0L97.45-4.63L92.88-4.63L92.88 0L91.63 0ZM102.41 0L102.41-9.84L103.66-9.84L103.66 0L102.41 0ZM108.60-8.83L108.60-5.17L110.25-5.17Q111.41-5.17 112.02-5.65Q112.63-6.12 112.63-7.08L112.63-7.08Q112.63-8.05 112.02-8.45Q111.41-8.83 110.25-8.83L110.25-8.83L108.60-8.83ZM114.16 0L112.75 0L110.38-4.16L108.60-4.16L108.60 0L107.35 0L107.35-9.84L110.43-9.84Q111.18-9.84 111.82-9.70Q112.45-9.55 112.91-9.22Q113.37-8.89 113.63-8.37Q113.88-7.84 113.88-7.08L113.88-7.08Q113.88-5.92 113.28-5.23Q112.68-4.54 111.67-4.29L111.67-4.29L114.16 0ZM117.07 0L117.07-9.84L122.74-9.84L122.74-8.79L118.31-8.79L118.31-5.70L122.05-5.70L122.05-4.63L118.31-4.63L118.31-1.06L122.89-1.06L122.89 0L117.07 0ZM130.34-2.63L130.34-2.63Q130.34-2.22 130.49-1.88Q130.63-1.54 130.90-1.30Q131.16-1.06 131.51-0.94Q131.87-0.81 132.27-0.81L132.27-0.81Q132.78-0.81 133.25-1.02Q133.71-1.23 134.15-1.60L134.15-1.60Q133.43-2.23 132.76-2.98Q132.09-3.73 131.56-4.53L131.56-4.53Q131.04-4.11 130.69-3.65Q130.34-3.19 130.34-2.63ZM131.49-7.71L131.49-7.71Q131.49-7.30 131.62-6.87Q131.75-6.43 131.96-5.98L131.96-5.98Q132.28-6.21 132.59-6.44Q132.90-6.67 133.13-6.92Q133.37-7.17 133.50-7.45Q133.63-7.72 133.63-8.05L133.63-8.05Q133.63-8.49 133.42-8.81Q133.20-9.13 132.71-9.13L132.71-9.13Q132.15-9.13 131.82-8.73Q131.49-8.32 131.49-7.71ZM137.56-0.84L137.24 0.18Q136.71 0.03 136.14-0.25Q135.57-0.53 134.97-0.94L134.97-0.94Q134.40-0.43 133.70-0.13Q133.00 0.18 132.13 0.18L132.13 0.18Q131.46 0.18 130.91-0.02Q130.37-0.22 129.97-0.58Q129.57-0.94 129.35-1.45Q129.13-1.95 129.13-2.55L129.13-2.55Q129.13-3.04 129.29-3.45Q129.45-3.85 129.72-4.20Q129.99-4.54 130.34-4.84Q130.69-5.13 131.07-5.38L131.07-5.38Q130.77-6 130.60-6.58Q130.43-7.15 130.43-7.69L130.43-7.69Q130.43-8.19 130.59-8.61Q130.75-9.03 131.06-9.34Q131.35-9.66 131.78-9.84Q132.19-10.02 132.71-10.02L132.71-10.02Q133.62-10.02 134.13-9.48Q134.64-8.94 134.64-8.07L134.64-8.07Q134.64-7.59 134.44-7.18Q134.25-6.78 133.94-6.43Q133.62-6.08 133.22-5.77Q132.82-5.46 132.42-5.16L132.42-5.16Q132.90-4.39 133.55-3.69Q134.21-2.98 134.91-2.40L134.91-2.40Q135.36-3.01 135.71-3.73Q136.06-4.46 136.29-5.31L136.29-5.31L137.44-5.31Q137.15-4.33 136.72-3.45Q136.31-2.56 135.72-1.78L135.72-1.78Q136.23-1.44 136.69-1.20Q137.16-0.96 137.56-0.84L137.56-0.84ZM144.17 0L144.17-9.84L149.84-9.84L149.84-8.79L145.41-8.79L145.41-5.70L149.15-5.70L149.15-4.63L145.41-4.63L145.41-1.06L149.99-1.06L149.99 0L144.17 0ZM153.07 0L153.07-9.84L154.32-9.84L154.32-1.06L158.63-1.06L158.63 0L153.07 0ZM161.36 0L161.36-9.84L167.03-9.84L167.03-8.79L162.61-8.79L162.61-5.70L166.34-5.70L166.34-4.63L162.61-4.63L162.61-1.06L167.18-1.06L167.18 0L161.36 0ZM169.70-4.92L169.70-4.92Q169.70-6.10 170.03-7.05Q170.36-8.00 170.94-8.65Q171.53-9.31 172.33-9.67Q173.13-10.02 174.08-10.02L174.08-10.02Q174.98-10.02 175.65-9.65Q176.33-9.29 176.76-8.80L176.76-8.80L176.06-8.01Q175.67-8.43 175.20-8.68Q174.72-8.92 174.09-8.92L174.09-8.92Q173.39-8.92 172.82-8.65Q172.25-8.37 171.84-7.85Q171.44-7.33 171.21-6.60Q170.99-5.87 170.99-4.95L170.99-4.95Q170.99-4.02 171.21-3.28Q171.42-2.53 171.81-2.01Q172.20-1.48 172.77-1.20Q173.33-0.91 174.03-0.91L174.03-0.91Q174.75-0.91 175.29-1.20Q175.82-1.48 176.30-2.01L176.30-2.01L177.00-1.24Q176.42-0.57 175.68-0.20Q174.95 0.18 174.00 0.18L174.00 0.18Q173.07 0.18 172.29-0.16Q171.50-0.51 170.92-1.16Q170.34-1.81 170.02-2.77Q169.70-3.72 169.70-4.92ZM181.60 0L181.60-8.79L178.63-8.79L178.63-9.84L185.83-9.84L185.83-8.79L182.86-8.79L182.86 0L181.60 0ZM189.85-8.83L189.85-5.17L191.50-5.17Q192.65-5.17 193.27-5.65Q193.88-6.12 193.88-7.08L193.88-7.08Q193.88-8.05 193.27-8.45Q192.65-8.83 191.50-8.83L191.50-8.83L189.85-8.83ZM195.41 0L194.00 0L191.63-4.16L189.85-4.16L189.85 0L188.60 0L188.60-9.84L191.68-9.84Q192.43-9.84 193.07-9.70Q193.70-9.55 194.16-9.22Q194.62-8.89 194.87-8.37Q195.13-7.84 195.13-7.08L195.13-7.08Q195.13-5.92 194.53-5.23Q193.93-4.54 192.92-4.29L192.92-4.29L195.41 0ZM198.32 0L198.32-9.84L199.56-9.84L199.56 0L198.32 0ZM202.69-4.92L202.69-4.92Q202.69-6.10 203.02-7.05Q203.35-8.00 203.94-8.65Q204.52-9.31 205.33-9.67Q206.13-10.02 207.07-10.02L207.07-10.02Q207.97-10.02 208.65-9.65Q209.32-9.29 209.76-8.80L209.76-8.80L209.05-8.01Q208.66-8.43 208.19-8.68Q207.72-8.92 207.09-8.92L207.09-8.92Q206.38-8.92 205.81-8.65Q205.24-8.37 204.84-7.85Q204.43-7.33 204.21-6.60Q203.98-5.87 203.98-4.95L203.98-4.95Q203.98-4.02 204.20-3.28Q204.42-2.53 204.81-2.01Q205.20-1.48 205.76-1.20Q206.32-0.91 207.03-0.91L207.03-0.91Q207.75-0.91 208.28-1.20Q208.81-1.48 209.29-2.01L209.29-2.01L210.00-1.24Q209.41-0.57 208.68-0.20Q207.94 0.18 207.00 0.18L207.00 0.18Q206.07 0.18 205.28-0.16Q204.49-0.51 203.92-1.16Q203.34-1.81 203.02-2.77Q202.69-3.72 202.69-4.92ZM214.06-4.00L217.01-4.00L216.55-5.50Q216.28-6.33 216.04-7.15Q215.80-7.96 215.56-8.82L215.56-8.82L215.50-8.82Q215.27-7.96 215.03-7.15Q214.79-6.33 214.52-5.50L214.52-5.50L214.06-4.00ZM218.26 0L217.33-3L213.74-3L212.80 0L211.52 0L214.85-9.84L216.26-9.84L219.59 0L218.26 0ZM221.99 0L221.99-9.84L223.23-9.84L223.23-1.06L227.54-1.06L227.54 0L221.99 0Z" transform="translate(-0.78, 10.02)"></path></g></g></g></g><defs v-gra="od"></defs></g></svg>